<svg width="31" height="56" viewBox="0 0 31 56" fill="none" xmlns="http://www.w3.org/2000/svg">
<path d="M19.5655 0L6.21214 0L3.86946 7.08378L11.2863 7.08378L11.2863 22.005H19.5655L19.5655 0Z" fill="black" style="fill:black;fill-opacity:1;"/>
<path fill-rule="evenodd" clip-rule="evenodd" d="M30.4577 40.0637C30.4577 48.4744 23.6395 55.2926 15.2289 55.2926C6.8182 55.2926 0 48.4744 0 40.0637C0 31.653 6.8182 24.8348 15.2289 24.8348C23.6395 24.8348 30.4577 31.653 30.4577 40.0637ZM23.544 40.0637C23.544 44.656 19.8212 48.3788 15.2288 48.3788C10.6365 48.3788 6.91368 44.656 6.91368 40.0637C6.91368 35.4713 10.6365 31.7485 15.2288 31.7485C19.8212 31.7485 23.544 35.4713 23.544 40.0637Z" fill="black" style="fill:black;fill-opacity:1;"/>
</svg>
