<svg width="164" height="45" viewBox="0 0 164 45" fill="none" xmlns="http://www.w3.org/2000/svg">
<path d="M16.1644 32.5067C13.2145 32.5067 10.5054 31.8096 8.03705 30.4154C5.56874 29.0211 3.61216 27.0965 2.16729 24.6414C0.722431 22.1561 0 19.3525 0 16.2306C0 13.1391 0.722431 10.3658 2.16729 7.91072C3.61216 5.42536 5.56874 3.48556 8.03705 2.09134C10.5054 0.697113 13.2145 0 16.1644 0C19.1444 0 21.8535 0.697113 24.2918 2.09134C26.7601 3.48556 28.7016 5.42536 30.1164 7.91072C31.5612 10.3658 32.2836 13.1391 32.2836 16.2306C32.2836 19.3525 31.5612 22.1561 30.1164 24.6414C28.7016 27.0965 26.7601 29.0211 24.2918 30.4154C21.8234 31.8096 19.1143 32.5067 16.1644 32.5067ZM16.1644 26.8237C18.0608 26.8237 19.7314 26.3994 21.1763 25.5507C22.6211 24.6718 23.7499 23.4291 24.5627 21.8227C25.3754 20.2163 25.7818 18.3523 25.7818 16.2306C25.7818 14.109 25.3754 12.2601 24.5627 10.684C23.7499 9.07763 22.6211 7.8501 21.1763 7.00144C19.7314 6.15278 18.0608 5.72845 16.1644 5.72845C14.268 5.72845 12.5823 6.15278 11.1074 7.00144C9.66252 7.8501 8.53372 9.07763 7.72098 10.684C6.90825 12.2601 6.50188 14.109 6.50188 16.2306C6.50188 18.3523 6.90825 20.2163 7.72098 21.8227C8.53372 23.4291 9.66252 24.6718 11.1074 25.5507C12.5823 26.3994 14.268 26.8237 16.1644 26.8237Z" fill="black" style="fill:black;fill-opacity:1;"/>
<path d="M48.5906 6.63773C51.5706 6.63773 53.9787 7.59247 55.8149 9.50196C57.651 11.3811 58.5691 14.018 58.5691 17.4127V32.1885H52.2479V18.2765C52.2479 16.2761 51.7512 14.7455 50.7579 13.6846C49.7645 12.5935 48.41 12.0479 46.6942 12.0479C44.9483 12.0479 43.5636 12.5935 42.5402 13.6846C41.5469 14.7455 41.0502 16.2761 41.0502 18.2765V32.1885H34.7289V7.00144H41.0502V10.1385C41.893 9.04732 42.9616 8.19866 44.256 7.59247C45.5804 6.95598 47.0253 6.63773 48.5906 6.63773Z" fill="black" style="fill:black;fill-opacity:1;"/>
<path d="M86.0275 19.0494C86.0275 19.9587 85.9673 20.777 85.8469 21.5044H67.5604C67.7109 23.323 68.343 24.7475 69.4568 25.778C70.5705 26.8086 71.9401 27.3238 73.5656 27.3238C75.9135 27.3238 77.5841 26.3085 78.5775 24.2777H85.3954C84.673 26.7025 83.2883 28.7029 81.2414 30.279C79.1945 31.8247 76.6811 32.5976 73.701 32.5976C71.2929 32.5976 69.1256 32.0672 67.1992 31.0064C65.3028 29.9153 63.8128 28.3846 62.7291 26.4145C61.6756 24.4444 61.1488 22.1712 61.1488 19.5949C61.1488 16.9883 61.6756 14.7 62.7291 12.7299C63.7827 10.7598 65.2576 9.24433 67.154 8.18351C69.0504 7.12268 71.2327 6.59227 73.701 6.59227C76.079 6.59227 78.2012 7.10752 80.0675 8.13804C81.9639 9.16856 83.4238 10.6386 84.4472 12.548C85.5007 14.4272 86.0275 16.5943 86.0275 19.0494ZM79.4805 17.2308C79.4504 15.5941 78.8634 14.2908 77.7196 13.3209C76.5757 12.3207 75.176 11.8206 73.5204 11.8206C71.9552 11.8206 70.6307 12.3056 69.5471 13.2755C68.4935 14.2151 67.8463 15.5335 67.6055 17.2308H79.4805Z" fill="black" style="fill:black;fill-opacity:1;"/>
<path d="M107.077 32.1885L95.6082 18.0492V32.1885H89.2869V0.454639H95.6082V14.6848L107.077 0.454639H114.707L101.704 16.1852L115.069 32.1885H107.077Z" fill="black" style="fill:black;fill-opacity:1;"/>
<path d="M137.513 19.0494C137.513 19.9587 137.453 20.777 137.333 21.5044H119.046C119.196 23.323 119.829 24.7475 120.942 25.778C122.056 26.8086 123.426 27.3238 125.051 27.3238C127.399 27.3238 129.07 26.3085 130.063 24.2777H136.881C136.159 26.7025 134.774 28.7029 132.727 30.279C130.68 31.8247 128.167 32.5976 125.187 32.5976C122.779 32.5976 120.611 32.0672 118.685 31.0064C116.788 29.9153 115.298 28.3846 114.215 26.4145C113.161 24.4444 112.634 22.1712 112.634 19.5949C112.634 16.9883 113.161 14.7 114.215 12.7299C115.268 10.7598 116.743 9.24433 118.64 8.18351C120.536 7.12268 122.718 6.59227 125.187 6.59227C127.565 6.59227 129.687 7.10752 131.553 8.13804C133.449 9.16856 134.909 10.6386 135.933 12.548C136.986 14.4272 137.513 16.5943 137.513 19.0494ZM130.966 17.2308C130.936 15.5941 130.349 14.2908 129.205 13.3209C128.061 12.3207 126.662 11.8206 125.006 11.8206C123.441 11.8206 122.116 12.3056 121.033 13.2755C119.979 14.2151 119.332 15.5335 119.091 17.2308H130.966Z" fill="black" style="fill:black;fill-opacity:1;"/>
<path d="M163.8 7.00144L148.313 44.1H141.585L147.003 31.552L136.98 7.00144H144.069L150.525 24.596L157.072 7.00144H163.8Z" fill="black" style="fill:black;fill-opacity:1;"/>
</svg>
