<svg width="248" height="72" viewBox="0 0 248 72" fill="none" xmlns="http://www.w3.org/2000/svg">
<path d="M100.164 52.7567C97.2145 52.7567 94.5054 52.0596 92.037 50.6654C89.5687 49.2711 87.6122 47.3465 86.1673 44.8914C84.7224 42.4061 84 39.6025 84 36.4806C84 33.3891 84.7224 30.6158 86.1673 28.1607C87.6122 25.6754 89.5687 23.7356 92.037 22.3413C94.5054 20.9471 97.2145 20.25 100.164 20.25C103.144 20.25 105.854 20.9471 108.292 22.3413C110.76 23.7356 112.702 25.6754 114.116 28.1607C115.561 30.6158 116.284 33.3891 116.284 36.4806C116.284 39.6025 115.561 42.4061 114.116 44.8914C112.702 47.3465 110.76 49.2711 108.292 50.6654C105.823 52.0596 103.114 52.7567 100.164 52.7567ZM100.164 47.0737C102.061 47.0737 103.731 46.6494 105.176 45.8007C106.621 44.9218 107.75 43.6791 108.563 42.0727C109.375 40.4663 109.782 38.6023 109.782 36.4806C109.782 34.359 109.375 32.5101 108.563 30.934C107.75 29.3276 106.621 28.1001 105.176 27.2514C103.731 26.4028 102.061 25.9785 100.164 25.9785C98.268 25.9785 96.5823 26.4028 95.1074 27.2514C93.6625 28.1001 92.5337 29.3276 91.721 30.934C90.9082 32.5101 90.5019 34.359 90.5019 36.4806C90.5019 38.6023 90.9082 40.4663 91.721 42.0727C92.5337 43.6791 93.6625 44.9218 95.1074 45.8007C96.5823 46.6494 98.268 47.0737 100.164 47.0737Z" fill="white" style="fill:white;fill-opacity:1;"/>
<path d="M132.591 26.8877C135.571 26.8877 137.979 27.8425 139.815 29.752C141.651 31.6311 142.569 34.268 142.569 37.6627V52.4385H136.248V38.5265C136.248 36.5261 135.751 34.9955 134.758 33.9346C133.765 32.8435 132.41 32.2979 130.694 32.2979C128.948 32.2979 127.564 32.8435 126.54 33.9346C125.547 34.9955 125.05 36.5261 125.05 38.5265V52.4385H118.729V27.2514H125.05V30.3885C125.893 29.2973 126.962 28.4487 128.256 27.8425C129.58 27.206 131.025 26.8877 132.591 26.8877Z" fill="white" style="fill:white;fill-opacity:1;"/>
<path d="M170.028 39.2994C170.028 40.2087 169.967 41.027 169.847 41.7544H151.56C151.711 43.573 152.343 44.9975 153.457 46.028C154.571 47.0586 155.94 47.5738 157.566 47.5738C159.913 47.5738 161.584 46.5585 162.577 44.5277H169.395C168.673 46.9525 167.288 48.9529 165.241 50.529C163.195 52.0747 160.681 52.8476 157.701 52.8476C155.293 52.8476 153.126 52.3172 151.199 51.2564C149.303 50.1653 147.813 48.6346 146.729 46.6645C145.676 44.6944 145.149 42.4212 145.149 39.8449C145.149 37.2383 145.676 34.95 146.729 32.9799C147.783 31.0098 149.258 29.4943 151.154 28.4335C153.05 27.3727 155.233 26.8423 157.701 26.8423C160.079 26.8423 162.201 27.3575 164.067 28.388C165.964 29.4186 167.424 30.8886 168.447 32.798C169.501 34.6772 170.028 36.8443 170.028 39.2994ZM163.48 37.4808C163.45 35.8441 162.863 34.5408 161.72 33.5709C160.576 32.5707 159.176 32.0706 157.52 32.0706C155.955 32.0706 154.631 32.5556 153.547 33.5255C152.494 34.4651 151.846 35.7835 151.606 37.4808H163.48Z" fill="white" style="fill:white;fill-opacity:1;"/>
<path d="M191.077 52.4385L179.608 38.2992V52.4385H173.287V20.7046H179.608V34.9348L191.077 20.7046H198.707L185.704 36.4352L199.069 52.4385H191.077Z" fill="white" style="fill:white;fill-opacity:1;"/>
<path d="M221.513 39.2994C221.513 40.2087 221.453 41.027 221.333 41.7544H203.046C203.196 43.573 203.829 44.9975 204.942 46.028C206.056 47.0586 207.426 47.5738 209.051 47.5738C211.399 47.5738 213.07 46.5585 214.063 44.5277H220.881C220.159 46.9525 218.774 48.9529 216.727 50.529C214.68 52.0747 212.167 52.8476 209.187 52.8476C206.779 52.8476 204.611 52.3172 202.685 51.2564C200.788 50.1653 199.298 48.6346 198.215 46.6645C197.161 44.6944 196.634 42.4212 196.634 39.8449C196.634 37.2383 197.161 34.95 198.215 32.9799C199.268 31.0098 200.743 29.4943 202.64 28.4335C204.536 27.3727 206.718 26.8423 209.187 26.8423C211.565 26.8423 213.687 27.3575 215.553 28.388C217.449 29.4186 218.909 30.8886 219.933 32.798C220.986 34.6772 221.513 36.8443 221.513 39.2994ZM214.966 37.4808C214.936 35.8441 214.349 34.5408 213.205 33.5709C212.061 32.5707 210.662 32.0706 209.006 32.0706C207.441 32.0706 206.116 32.5556 205.033 33.5255C203.979 34.4651 203.332 35.7835 203.091 37.4808H214.966Z" fill="white" style="fill:white;fill-opacity:1;"/>
<path d="M247.8 27.2514L232.313 64.35H225.585L231.003 51.802L220.98 27.2514H228.069L234.525 44.846L241.072 27.2514H247.8Z" fill="white" style="fill:white;fill-opacity:1;"/>
<path d="M72 36C72 60.8528 60.8528 72 36 72C11.1472 72 0 60.8528 0 36C0 11.1472 11.1472 0 36 0C60.8528 0 72 11.1472 72 36Z" fill="#3BD32D" style="fill:#3BD32D;fill:color(display-p3 0.2314 0.8275 0.1765);fill-opacity:1;"/>
<path d="M39.2522 15.2651L29.2372 15.2651L27.4802 20.578H33.0428V31.7689L39.2522 31.7689V15.2651Z" fill="black" style="fill:black;fill-opacity:1;"/>
<path fill-rule="evenodd" clip-rule="evenodd" d="M47.4214 45.3129C47.4214 51.6209 42.3078 56.7346 35.9998 56.7346C29.6918 56.7346 24.5781 51.6209 24.5781 45.3129C24.5781 39.0049 29.6918 33.8913 35.9998 33.8913C42.3078 33.8913 47.4214 39.0049 47.4214 45.3129ZM42.2361 45.3129C42.2361 48.7571 39.444 51.5493 35.9998 51.5493C32.5555 51.5493 29.7634 48.7571 29.7634 45.3129C29.7634 41.8686 32.5555 39.0765 35.9998 39.0765C39.444 39.0765 42.2361 41.8686 42.2361 45.3129Z" fill="black" style="fill:black;fill-opacity:1;"/>
</svg>
