<svg width="48" height="48" viewBox="0 0 48 48" fill="none" xmlns="http://www.w3.org/2000/svg">
<path d="M24 0C40.5685 0 48 7.43146 48 24C48 40.5685 40.5685 48 24 48C7.43146 48 0 40.5685 0 24C3.74286e-07 7.43146 7.43146 3.74319e-07 24 0ZM23.999 22.5938C19.7938 22.5938 16.3848 26.0037 16.3848 30.209C16.385 34.4141 19.7939 37.8231 23.999 37.8232C28.2042 37.8232 31.6131 34.4142 31.6133 30.209C31.6133 26.0036 28.2044 22.5938 23.999 22.5938ZM23.999 26.0508C26.2952 26.0508 28.1572 27.9128 28.1572 30.209C28.157 32.505 26.2951 34.3662 23.999 34.3662C21.7031 34.3661 19.842 32.5049 19.8418 30.209C19.8418 27.9129 21.7029 26.0509 23.999 26.0508ZM19.4912 10.1768L18.3193 13.7188H22.0283V21.1797H26.168V10.1768H19.4912Z" fill="black" style="fill:black;fill-opacity:1;"/>
</svg>
