<svg width="48" height="48" viewBox="0 0 48 48" fill="none" xmlns="http://www.w3.org/2000/svg">
<path d="M48 24C48 40.5685 40.5685 48 24 48C7.43146 48 0 40.5685 0 24C0 7.43146 7.43146 0 24 0C40.5685 0 48 7.43146 48 24Z" fill="#3BD32D" style="fill:#3BD32D;fill:color(display-p3 0.2314 0.8275 0.1765);fill-opacity:1;"/>
<path d="M26.1695 10.1768L19.4928 10.1768L18.3214 13.7186H22.0298V21.1793H26.1695V10.1768Z" fill="black" style="fill:black;fill-opacity:1;"/>
<path fill-rule="evenodd" clip-rule="evenodd" d="M31.6156 30.2086C31.6156 34.414 28.2065 37.8231 24.0012 37.8231C19.7958 37.8231 16.3867 34.414 16.3867 30.2086C16.3867 26.0033 19.7958 22.5942 24.0012 22.5942C28.2065 22.5942 31.6156 26.0033 31.6156 30.2086ZM28.1587 30.2086C28.1587 32.5048 26.2973 34.3662 24.0011 34.3662C21.705 34.3662 19.8436 32.5048 19.8436 30.2086C19.8436 27.9124 21.705 26.051 24.0011 26.051C26.2973 26.051 28.1587 27.9124 28.1587 30.2086Z" fill="black" style="fill:black;fill-opacity:1;"/>
</svg>
